Coordinates
version=1
nRows=6
nColumns=34
inDegrees=yes

Units are S.I. units (second, meters, Newtons, ...)
If the header above contains a line with 'inDegrees', this indicates whether rotational values are in degrees (yes) or radians (no).

endheader
time	pelvis_tilt	pelvis_list	pelvis_rotation	pelvis_tx	pelvis_ty	pelvis_tz	hip_flexion_r	hip_adduction_r	hip_rotation_r	knee_angle_r	ankle_angle_r	subtalar_angle_r	mtp_angle_r	hip_flexion_l	hip_adduction_l	hip_rotation_l	knee_angle_l	ankle_angle_l	subtalar_angle_l	mtp_angle_l	lumbar_extension	lumbar_bending	lumbar_rotation	arm_flex_r	arm_add_r	arm_rot_r	elbow_flex_r	pro_sup_r	arm_flex_l	arm_add_l	arm_rot_l	elbow_flex_l	pro_sup_l
      1.46666670	     29.18135287	      8.98754180	    -34.25824064	      0.59583783	      1.01704946	     -0.68906818	    -30.00000025	    -22.25739217	    -19.71409554	     23.38349765	     24.14994492	      6.79723125	      0.00000000	     -3.84321743	     24.83583246	     13.74095116	      0.00000000	    -10.02901868	    -35.00000000	      0.00000000	    -65.33904125	    -18.20785957	    -11.66419701	     16.02418597	      3.82826963	    -11.55004350	     29.37411513	    118.20295363	     16.12123619	     -1.95308396	      1.61028594	     19.74598663	    112.57254150
      1.48333330	     28.65533194	      9.50393099	    -34.37566817	      0.60810209	      1.01852137	     -0.68475043	    -30.00000025	    -22.62907185	    -19.52315140	     23.01292873	     25.67610310	      6.51065216	      0.00000000	     -3.19444047	     25.47087289	     13.93422003	      0.00000000	     -9.57677503	    -35.00000000	      0.00000000	    -64.60920874	    -18.27966623	    -11.75012343	     15.86232956	      3.70811108	    -11.55346017	     29.26515450	    118.22749567	     16.34534000	     -1.94861157	      1.71777917	     19.93022513	    112.54658128
      1.50000000	     28.34207079	     10.22841068	    -34.67033809	      0.62010612	      1.01844809	     -0.68033860	    -30.00000025	    -23.46693940	    -19.63417197	     23.22515414	     26.47787728	      6.39934237	      0.00000000	     -2.67731168	     26.40341395	     14.11000418	      0.00000000	     -9.01806814	    -35.00000000	      0.00000000	    -63.77779961	    -18.74705591	    -11.88019385	     15.57862604	      3.55537769	    -11.57581330	     29.03046064	    118.26238995	     16.46395598	     -1.93435580	      1.85341937	     20.14195262	    112.53012744
      1.51666670	     28.21722130	     11.00197063	    -35.18839019	      0.63167478	      1.01774216	     -0.67603200	    -30.00000025	    -24.59585828	    -19.81527641	     23.88430354	     26.54550323	      6.35339290	      0.00000000	     -2.38929694	     27.45372308	     14.07792533	      0.00000000	     -8.55137692	    -35.00000000	      0.00000000	    -62.90571460	    -19.54350147	    -12.02341561	     15.22859414	      3.45524285	    -11.61105055	     28.70957113	    118.30481709	     16.51445197	     -2.00039660	      2.00364965	     20.35151896	    112.52499696
      1.53333330	     28.32191526	     11.69409548	    -35.93397654	      0.64356190	      1.01751833	     -0.67162677	    -30.00000025	    -25.89059186	    -19.80964017	     24.85322114	     26.33431269	      6.09643761	      0.00000000	     -2.46800894	     28.53624020	     13.85377391	      0.00000000	     -8.08845625	    -35.00000000	      0.00000000	    -62.14522379	    -20.55969521	    -12.15413003	     14.85730310	      3.38733758	    -11.66219440	     28.29850540	    118.35587063	     16.56213104	     -2.14726896	      2.17872241	     20.57983597	    112.53302106
      1.55000000	     28.79884187	     12.23929705	    -36.84029881	      0.65608946	      1.01749680	     -0.66642971	    -30.00000025	    -27.32128949	    -19.43940897	     26.23819805	     25.47650933	      5.42719185	      0.00000000	     -3.10539564	     29.67664606	     13.58174458	      0.00000000	     -7.71176729	    -35.00000000	      0.00000000	    -61.66500984	    -21.69412532	    -12.30215156	     14.52994936	      3.26723478	    -11.73536020	     27.87525585	    118.40676426	     16.59324806	     -2.28357571	      2.37000406	     20.80169933	    112.55696915
